<?xml version="1.0" encoding="UTF-8"?>
<svg id="Livello_1"
     xmlns="http://www.w3.org/2000/svg"
     xmlns:xlink="http://www.w3.org/1999/xlink"
     viewBox="0 0 1331.25 392.37"
	 width="200">
	<defs>
		<style>.cls-1{fill:url(#Nuovo_campione_sfumatura_3-2);}.cls-1,.cls-2,.cls-3,.cls-4,.cls-5,.cls-6{stroke-width:0px;}.cls-2{fill:#031835;}.cls-3{fill:#e50040;}.cls-4{fill:url(#Nuovo_campione_sfumatura_3-3);}.cls-5{fill:url(#Nuovo_campione_sfumatura_3);}.cls-6{fill:url(#Nuovo_campione_sfumatura_3-4);}</style>
		<linearGradient id="Nuovo_campione_sfumatura_3"
		                x1="171.46"
		                y1="47.57"
		                x2="308.42"
		                y2="159.61"
		                gradientUnits="userSpaceOnUse">
			<stop offset=".1"
			      stop-color="#e50040"/>
			<stop offset="1"
			      stop-color="#031835"/>
		</linearGradient>
		<linearGradient id="Nuovo_campione_sfumatura_3-2"
		                x1="33.42"
		                y1="206.74"
		                x2="145.48"
		                y2="69.76"
		                xlink:href="#Nuovo_campione_sfumatura_3"/>
		<linearGradient id="Nuovo_campione_sfumatura_3-3"
		                x1="330.62"
		                y1="185.63"
		                x2="218.56"
		                y2="322.61"
		                xlink:href="#Nuovo_campione_sfumatura_3"/>
		<linearGradient id="Nuovo_campione_sfumatura_3-4"
		                x1="192.57"
		                y1="344.79"
		                x2="55.62"
		                y2="232.76"
		                xlink:href="#Nuovo_campione_sfumatura_3"/>
	</defs>
	<path class="cls-3"
	      d="m896.11,205.46c0,14.94-9.46,25.39-25.64,25.39s-25.64-10.46-25.64-25.39,9.46-25.65,25.64-25.65,25.64,10.46,25.64,25.65Z"/>
	<path class="cls-2"
	      d="m507.68,249.91h99.28v46.03h-152.53V89.01h53.25v160.9Z"/>
	<path class="cls-2"
	      d="m630.48,212.3v-122.08h53.1v121.79c0,27.42,12.65,41.13,37.95,41.13s38.1-13.71,38.1-41.13v-121.79h53.1v122.08c0,27.42-8.11,48.75-24.32,64-16.21,15.25-38.51,22.87-66.88,22.87s-50.65-7.67-66.81-23.02c-16.16-15.34-24.24-36.63-24.24-63.85Z"/>
	<path class="cls-2"
	      d="m1064.74,89.01h56.71l-61.18,206.93h-89.9l-60.9-206.93h57.14l49.06,183.84,49.06-183.84Z"/>
	<path class="cls-2"
	      d="m1195.05,251.35h108.95v44.59h-162.2V89.01h159.89v44.73h-106.64v34.49h93.65v44.73h-93.65v38.39Z"/>
	<path class="cls-5"
	      d="m290.81,143.3s0-.02,0-.03c-.03-.53-.06-1.07-.09-1.62,0,0,0,0,0-.01-.02-.27-.03-.53-.05-.8,0-.09-.01-.17-.02-.26-.01-.19-.03-.37-.04-.56,0-.1-.02-.2-.02-.3-.01-.18-.03-.36-.04-.54,0-.1-.02-.21-.03-.31-.02-.19-.03-.37-.05-.56,0-.1-.02-.19-.03-.29-.02-.22-.04-.44-.06-.66,0-.07-.01-.13-.02-.2-.06-.59-.12-1.18-.19-1.79,0-.06-.01-.12-.02-.18-.03-.24-.06-.48-.09-.72,0-.08-.02-.16-.03-.23-.03-.23-.06-.47-.09-.7,0-.08-.02-.15-.03-.23-.03-.25-.07-.5-.1-.75,0-.06-.02-.12-.02-.17-.14-.96-.28-1.94-.45-2.94,0-.02,0-.03,0-.05-.05-.31-.1-.63-.16-.94,0-.04-.01-.08-.02-.12-.05-.3-.11-.6-.16-.91,0-.04-.01-.07-.02-.11-.06-.33-.12-.66-.18-.99,0,0,0-.01,0-.02-.27-1.4-.56-2.84-.89-4.3,0,0,0-.01,0-.02-.08-.36-.17-.73-.25-1.09,0,0,0,0,0,0-2.92-12.46-8.21-26.86-17.5-42.07,0,0,0,0,0-.01-.53-.87-1.08-1.75-1.64-2.63,0-.01-.02-.03-.03-.04-.56-.87-1.12-1.74-1.71-2.62-.01-.02-.02-.04-.04-.06-.58-.87-1.18-1.75-1.78-2.63-.01-.02-.03-.04-.04-.06-.61-.88-1.23-1.76-1.87-2.65-.01-.01-.02-.03-.03-.04-.32-.44-.64-.89-.97-1.33,0,0,0-.01-.01-.02-.33-.44-.66-.89-.99-1.33,0,0,0-.01-.01-.02-.33-.44-.67-.88-1.01-1.32-.02-.02-.04-.05-.06-.07-.67-.88-1.36-1.75-2.06-2.63-.03-.04-.06-.07-.09-.11-.69-.87-1.4-1.73-2.12-2.6-.04-.04-.07-.09-.11-.13-.72-.86-1.45-1.73-2.2-2.59-.04-.05-.08-.1-.12-.14-.75-.86-1.51-1.73-2.29-2.59-.04-.05-.09-.1-.13-.14-.39-.44-.79-.87-1.19-1.31,0,0-.01-.01-.02-.02-.39-.43-.79-.85-1.18-1.28-.04-.04-.08-.09-.12-.13-.4-.43-.81-.86-1.22-1.3-.03-.03-.06-.06-.08-.09-.4-.42-.8-.83-1.2-1.25-.03-.03-.07-.07-.1-.1-.42-.43-.84-.86-1.27-1.29-.52-.52-1.04-1.05-1.57-1.57h0c-22.36-4.79-46.54-4.33-69.97,1.12,32.47,10.17,56.23,32.9,66.05,65.73,10.83,9.51,20.52,22.95,26.26,31.67,2.92,4.45,5.47,9.1,7.82,14.1,4.54,9.77,8.15,20.77,7.17,31.57-.22,2.02-.67,4.06-1.28,5.99-.14.45-.31.93-.5,1.41,9.14-16.26,11.39-33.12,11.39-33.12,0,0,1.63-7.53,1.03-19.9Z"/>
	<path class="cls-1"
	      d="m97.31,139.36c9.52-10.88,23.03-20.62,31.79-26.38,4.46-2.92,9.1-5.47,14.1-7.82,9.77-4.53,20.78-8.15,31.58-7.17,2.02.22,4.07.67,6,1.28.45.14.93.31,1.41.5-16.26-9.14-33.13-11.39-33.13-11.39,0,0-7.53-1.63-19.9-1.03,0,0-.02,0-.03,0-.53.03-1.07.06-1.62.09,0,0,0,0-.01,0-.27.02-.53.03-.8.05-.09,0-.17.01-.26.02-.19.01-.37.03-.56.04-.1,0-.2.02-.3.02-.18.01-.36.03-.54.04-.1,0-.21.02-.31.03-.19.02-.37.03-.56.05-.1,0-.19.02-.29.03-.22.02-.44.04-.66.06-.07,0-.13.01-.2.02-.59.06-1.18.12-1.79.19-.06,0-.12.01-.18.02-.24.03-.48.06-.72.09-.08,0-.16.02-.23.03-.23.03-.47.06-.7.09-.08,0-.15.02-.23.03-.25.03-.5.07-.75.1-.06,0-.12.02-.17.02-.96.14-1.95.28-2.94.45-.02,0-.03,0-.05,0-.31.05-.63.1-.94.16-.04,0-.08.01-.12.02-.3.05-.6.11-.91.16-.04,0-.07.01-.11.02-.33.06-.66.12-.99.18,0,0-.01,0-.02,0-1.4.27-2.84.56-4.3.89,0,0-.01,0-.02,0-.36.08-.73.17-1.09.25,0,0,0,0,0,0-12.46,2.92-26.87,8.21-42.09,17.49,0,0,0,0-.01,0-.87.53-1.75,1.08-2.63,1.64-.01,0-.03.02-.04.03-.87.56-1.75,1.12-2.62,1.71-.02.01-.04.02-.06.04-.87.58-1.75,1.18-2.63,1.78-.02.01-.04.03-.06.04-.88.61-1.76,1.23-2.65,1.87-.01.01-.03.02-.04.03-.44.32-.89.64-1.33.97,0,0-.01,0-.02.01-.44.33-.89.66-1.33.99,0,0-.01,0-.02.01-.44.33-.88.67-1.33,1.01-.02.02-.05.04-.07.06-.88.67-1.75,1.36-2.63,2.06-.04.03-.07.06-.11.09-.87.69-1.73,1.4-2.6,2.12-.04.04-.09.07-.13.11-.86.72-1.73,1.45-2.59,2.2-.05.04-.1.08-.14.12-.86.75-1.73,1.51-2.59,2.29-.05.04-.1.09-.14.13-.44.39-.87.79-1.31,1.19,0,0-.01.01-.02.02-.43.39-.85.79-1.28,1.18-.04.04-.09.08-.13.12-.43.4-.86.81-1.3,1.22-.03.03-.06.06-.09.08-.42.4-.83.8-1.25,1.2-.03.03-.07.07-.1.1-.43.42-.86.84-1.29,1.27-.52.52-1.05,1.04-1.57,1.57h0c-4.8,22.37-4.32,46.56,1.14,70,10.17-32.4,32.86-56.13,65.63-65.96Z"/>
	<path class="cls-4"
	      d="m266.73,253.01c-9.52,10.88-23.03,20.62-31.79,26.38-4.46,2.92-9.1,5.47-14.1,7.82-9.77,4.53-20.78,8.15-31.58,7.17-2.02-.22-4.07-.67-6-1.28-.45-.14-.93-.31-1.41-.5,16.26,9.14,33.13,11.39,33.13,11.39,0,0,7.53,1.63,19.9,1.03,0,0,.02,0,.03,0,.53-.03,1.07-.06,1.62-.09,0,0,0,0,.01,0,.27-.02.53-.03.8-.05.09,0,.17-.01.26-.02.19-.01.37-.03.56-.04.1,0,.2-.02.3-.02.18-.01.36-.03.54-.04.1,0,.21-.02.31-.03.19-.02.37-.03.56-.05.1,0,.19-.02.29-.03.22-.02.44-.04.66-.06.07,0,.13-.01.2-.02.59-.06,1.18-.12,1.79-.19.06,0,.12-.01.18-.02.24-.03.48-.06.72-.09.08,0,.16-.02.23-.03.23-.03.47-.06.7-.09.08,0,.15-.02.23-.03.25-.03.5-.07.75-.1.06,0,.12-.02.17-.02.96-.14,1.95-.28,2.94-.45.02,0,.03,0,.05,0,.31-.05.63-.1.94-.16.04,0,.08-.01.12-.02.3-.05.6-.11.91-.16.04,0,.07-.01.11-.02.33-.06.66-.12.99-.18,0,0,.01,0,.02,0,1.4-.27,2.84-.56,4.3-.89,0,0,.01,0,.02,0,.36-.08.73-.17,1.09-.25h0c12.46-2.92,26.87-8.21,42.09-17.49,0,0,0,0,.01,0,.87-.53,1.75-1.08,2.63-1.64.01,0,.03-.02.04-.03.87-.56,1.75-1.12,2.62-1.71.02-.01.04-.02.06-.04.87-.58,1.75-1.18,2.63-1.78.02-.01.04-.03.06-.04.88-.61,1.76-1.23,2.65-1.87.01-.01.03-.02.04-.03.44-.32.89-.64,1.33-.97,0,0,.01,0,.02-.01.44-.33.89-.66,1.33-.99,0,0,.01,0,.02-.01.44-.33.88-.67,1.33-1.01.02-.02.05-.04.07-.06.88-.67,1.75-1.36,2.63-2.06.04-.03.07-.06.11-.09.87-.69,1.73-1.4,2.6-2.12.04-.04.09-.07.13-.11.86-.72,1.73-1.45,2.59-2.2.05-.04.1-.08.14-.12.86-.75,1.73-1.51,2.59-2.29.05-.04.1-.09.14-.13.44-.39.87-.79,1.31-1.19,0,0,.01-.01.02-.02.43-.39.85-.79,1.28-1.18.04-.04.09-.08.13-.12.43-.4.86-.81,1.3-1.22.03-.03.06-.06.09-.08.42-.4.83-.8,1.25-1.2.03-.03.07-.07.1-.1.43-.42.86-.84,1.29-1.27.52-.52,1.05-1.04,1.57-1.57h0c4.8-22.37,4.32-46.56-1.14-70-10.17,32.4-32.86,56.13-65.63,65.96Z"/>
	<path class="cls-6"
	      d="m125.1,280.8c-10.83-9.51-20.52-22.95-26.26-31.67-2.92-4.45-5.47-9.1-7.82-14.1-4.54-9.77-8.15-20.77-7.17-31.57.22-2.02.67-4.06,1.28-5.99.14-.45.31-.93.5-1.41-9.14,16.26-11.39,33.12-11.39,33.12,0,0-1.63,7.53-1.03,19.9,0,0,0,.02,0,.03.03.53.06,1.07.09,1.62,0,0,0,0,0,.01.02.27.03.53.05.8,0,.09.01.17.02.26.01.19.03.37.04.56,0,.1.02.2.02.3.01.18.03.36.04.54,0,.1.02.21.03.31.02.19.03.37.05.56,0,.1.02.19.03.29.02.22.04.44.06.66,0,.07.01.13.02.2.06.59.12,1.18.19,1.79,0,.06.01.12.02.18.03.24.06.48.09.72,0,.08.02.16.03.23.03.23.06.47.09.7.01.08.02.15.03.23.03.25.07.5.1.75,0,.06.02.12.02.17.14.96.28,1.94.45,2.94,0,.02,0,.03,0,.05.05.31.1.63.16.94,0,.04.01.08.02.12.05.3.11.6.16.91,0,.04.01.07.02.11.06.33.12.66.18.99,0,0,0,.01,0,.02.27,1.4.56,2.84.89,4.3,0,0,0,.01,0,.02.08.36.17.73.25,1.09,0,0,0,0,0,0,2.92,12.46,8.21,26.86,17.5,42.07,0,0,0,0,0,.01.53.87,1.08,1.75,1.64,2.63,0,.01.02.03.03.04.56.87,1.12,1.74,1.71,2.62.01.02.02.04.04.06.58.87,1.18,1.75,1.78,2.63.01.02.03.04.04.06.61.88,1.23,1.76,1.87,2.65.01.01.02.03.03.04.32.44.64.89.97,1.33,0,0,0,.01.01.02.33.44.66.89.99,1.33,0,0,0,.01.01.02.33.44.67.88,1.01,1.32.02.02.04.05.06.07.67.88,1.36,1.75,2.06,2.63.03.04.06.07.09.11.69.87,1.4,1.73,2.12,2.6.04.04.07.09.11.13.72.86,1.45,1.73,2.2,2.59.04.05.08.1.12.14.75.86,1.51,1.73,2.29,2.59.04.05.09.1.13.14.39.44.79.87,1.19,1.31,0,0,.01.01.02.02.39.43.79.85,1.18,1.28.04.04.08.09.12.13.4.43.81.86,1.22,1.3.03.03.06.06.08.09.4.42.8.83,1.2,1.25.03.03.07.07.1.1.42.43.84.86,1.27,1.29.52.52,1.04,1.05,1.57,1.57h0c22.36,4.79,46.54,4.33,69.97-1.12-32.47-10.17-56.23-32.9-66.05-65.73Z"/>
	<path class="cls-3"
	      d="m329.05,117.76s0-.01,0-.02c-14.54-40.91-47.66-64.78-86.19-73.04.53.52,1.05,1.05,1.57,1.57.43.43.85.86,1.27,1.29.03.03.07.07.1.1.4.42.8.83,1.2,1.25.03.03.06.06.08.09.41.43.82.86,1.22,1.3.04.04.08.09.12.13.4.43.79.85,1.18,1.28,0,0,.01.01.02.02.4.44.79.87,1.19,1.31.04.05.09.1.13.14.78.86,1.54,1.73,2.29,2.59.04.05.08.1.12.14.75.86,1.48,1.73,2.2,2.59.04.04.07.09.11.13.72.87,1.43,1.74,2.12,2.6.03.04.06.07.09.11.7.88,1.39,1.75,2.06,2.63.02.02.04.05.06.07.34.44.68.88,1.01,1.32,0,0,0,.01.01.02.33.44.67.89.99,1.33,0,0,0,.01.01.02.33.44.65.89.97,1.33.01.01.02.03.03.04.64.88,1.26,1.77,1.87,2.65.01.02.03.04.04.06.61.88,1.2,1.75,1.78,2.63.01.02.02.04.04.05.58.88,1.15,1.75,1.71,2.62,0,.01.02.03.03.04.56.88,1.11,1.75,1.64,2.63,0,0,0,0,0,.01,15.07,24.7,19.62,47.27,20.6,62.83,0,0,0,0,0,.01.03.55.06,1.09.09,1.62v.03c.6,12.37-1.03,19.9-1.03,19.9,0,0-7.11,53.18-47.29,61.74-12.14,2.59-22.85,3.35-31.89,3.17,24.05-17.57,37.22-59.91,32.18-98.34-6.05-46.11-36.09-76.61-79.36-86.48-5.77-1.2-11.65-1.78-17.64-1.87,0,0-21.78-.18-42.17,7.74,0,0-.01,0-.02,0-40.92,14.54-64.8,47.65-73.06,86.17.52-.53,1.05-1.05,1.57-1.57.43-.43.86-.85,1.29-1.27.03-.03.07-.07.1-.1.42-.4.83-.8,1.25-1.2.03-.03.06-.06.09-.08.43-.41.86-.82,1.3-1.22.04-.04.09-.08.13-.12.43-.4.85-.79,1.28-1.18,0,0,.01-.01.02-.02.44-.4.87-.79,1.31-1.19.05-.04.1-.09.14-.13.86-.78,1.73-1.54,2.59-2.29.05-.04.1-.08.14-.12.86-.75,1.73-1.48,2.59-2.2.04-.04.09-.07.13-.11.87-.72,1.74-1.43,2.6-2.12.04-.03.07-.06.11-.09.88-.7,1.76-1.39,2.63-2.06.02-.02.05-.04.07-.06.44-.34.88-.68,1.33-1.01,0,0,.01,0,.02-.01.44-.33.89-.67,1.33-.99,0,0,.01,0,.02-.01.44-.33.89-.65,1.33-.97.01-.01.03-.02.04-.03.88-.64,1.77-1.26,2.65-1.87.02-.01.04-.03.06-.04.88-.61,1.75-1.2,2.63-1.78.02-.01.04-.02.06-.04.88-.58,1.75-1.15,2.62-1.71.01,0,.03-.02.04-.03.88-.56,1.76-1.11,2.63-1.64,0,0,0,0,.01,0,24.71-15.07,47.28-19.61,62.85-20.59,0,0,0,0,.01,0,.55-.03,1.09-.06,1.62-.09,0,0,.02,0,.03,0,12.37-.6,19.9,1.03,19.9,1.03,0,0,53.2,7.11,61.76,47.27,2.59,12.17,3.36,22.91,3.17,31.97-17.57-24.04-59.93-37.21-98.37-32.17-46.12,6.05-76.63,36.08-86.5,79.34-1.2,5.77-1.78,11.65-1.87,17.63,0,0-.18,21.77,7.74,42.15,0,0,0,.01,0,.02,14.54,40.91,47.66,64.78,86.19,73.04-.53-.52-1.05-1.05-1.57-1.57-.43-.43-.85-.86-1.27-1.29-.03-.03-.07-.07-.1-.1-.4-.42-.8-.83-1.2-1.25-.03-.03-.06-.06-.08-.09-.41-.43-.82-.86-1.22-1.3-.04-.04-.08-.09-.12-.13-.4-.43-.79-.85-1.18-1.28,0,0-.01-.01-.02-.02-.4-.44-.79-.87-1.19-1.31-.04-.05-.09-.1-.13-.14-.78-.86-1.54-1.73-2.29-2.59-.04-.05-.08-.1-.12-.14-.75-.86-1.48-1.73-2.2-2.59-.04-.04-.07-.09-.11-.13-.72-.87-1.43-1.74-2.12-2.6-.03-.04-.06-.07-.09-.11-.7-.88-1.39-1.75-2.06-2.63-.02-.02-.04-.05-.06-.07-.34-.44-.68-.88-1.01-1.32,0,0,0-.01-.01-.02-.33-.44-.67-.89-.99-1.33,0,0,0-.01-.01-.02-.33-.44-.65-.89-.97-1.33-.01-.01-.02-.03-.03-.04-.64-.88-1.26-1.77-1.87-2.65-.01-.02-.03-.04-.04-.06-.61-.88-1.2-1.75-1.78-2.63l-.04-.05c-.58-.88-1.15-1.75-1.71-2.62,0-.01-.02-.03-.03-.04-.56-.88-1.11-1.75-1.64-2.63,0,0,0,0,0-.01-15.07-24.7-19.62-47.27-20.6-62.83,0,0,0,0,0-.01-.03-.55-.06-1.09-.09-1.62,0,0,0-.02,0-.03-.6-12.37,1.03-19.9,1.03-19.9,0,0,7.11-53.18,47.29-61.74,12.14-2.59,22.85-3.35,31.89-3.17-24.05,17.57-37.22,59.91-32.18,98.34,6.05,46.11,36.09,76.61,79.36,86.48,5.77,1.2,11.65,1.78,17.64,1.87,0,0,21.78.18,42.17-7.74,0,0,.01,0,.02,0,40.92-14.54,64.8-47.65,73.06-86.17-.52.53-1.05,1.05-1.57,1.57-.43.43-.86.85-1.29,1.27-.03.03-.07.07-.1.1-.42.4-.83.8-1.25,1.2-.03.03-.06.06-.09.08-.43.41-.86.82-1.3,1.22-.04.04-.09.08-.13.12-.43.4-.85.79-1.28,1.18,0,0-.01.01-.02.02-.44.4-.87.79-1.31,1.19-.05.04-.1.09-.14.13-.86.78-1.73,1.54-2.59,2.29-.05.04-.1.08-.14.12-.86.75-1.73,1.48-2.59,2.2-.04.04-.09.07-.13.11-.87.72-1.74,1.43-2.6,2.12-.04.03-.07.06-.11.09-.88.7-1.76,1.39-2.63,2.06-.02.02-.05.04-.07.06-.44.34-.88.68-1.33,1.01,0,0-.01,0-.02.01-.44.33-.89.67-1.33.99,0,0-.01,0-.02.01-.44.33-.89.65-1.33.97-.01.01-.03.02-.04.03-.88.64-1.77,1.26-2.65,1.87-.02.01-.04.03-.06.04-.88.61-1.75,1.2-2.63,1.78-.02.01-.04.02-.06.04-.88.58-1.75,1.15-2.62,1.71-.01,0-.03.02-.04.03-.88.56-1.76,1.11-2.63,1.64,0,0,0,0-.01,0-24.71,15.07-47.28,19.61-62.85,20.59,0,0,0,0-.01,0-.55.03-1.09.06-1.62.09,0,0-.02,0-.03,0-12.37.6-19.9-1.03-19.9-1.03,0,0-53.2-7.11-61.76-47.28-2.59-12.17-3.36-22.91-3.17-31.97,17.57,24.04,59.93,37.21,98.37,32.17,46.12-6.05,76.63-36.08,86.5-79.34,1.2-5.77,1.78-11.65,1.87-17.63,0,0,.18-21.77-7.74-42.15Zm-147.03,103.97c-14.11,0-25.55-11.44-25.55-25.55s11.44-25.55,25.55-25.55,25.55,11.44,25.55,25.55-11.44,25.55-25.55,25.55Z"/>
</svg>