<?xml version="1.0" encoding="UTF-8"?>
<svg xmlns="http://www.w3.org/2000/svg" id="Livello_1" viewBox="0 0 240.7084 68.6432">
  <defs>
    <style>.cls-1{fill:#00497c;}.cls-2{fill:#cf0a2c;}</style>
  </defs>
  <path class="cls-1" d="m10.0617,5.2859H0V0h25.9656v5.2859h-10.0615v27.5423h-5.8424V5.2859Z"></path>
  <path class="cls-1" d="m33.7959,13.6785h.0928c.4325-.9274,1.1976-1.7693,2.2955-2.5272,1.097-.7571,2.511-1.1358,4.2425-1.1358,1.4839,0,2.7429.2477,3.7788.7418,1.0354.4949,1.8782,1.1439,2.5272,1.9472.6491.8043,1.113,1.7317,1.3909,2.7822.2781,1.0512.4171,2.1489.4171,3.2921v14.0493h-5.5637v-11.2673c0-.6181-.0313-1.3056-.0928-2.0634-.0627-.7573-.2247-1.4678-.4869-2.133-.2633-.6641-.6728-1.2206-1.2289-1.6693-.5567-.4478-1.3144-.6724-2.2718-.6724-.9276,0-1.7084.1551-2.3417.4639-.634.3093-1.1593.7268-1.5767,1.2519-.417.526-.7187,1.1287-.9039,1.8082-.1859.6802-.2787,1.3911-.2787,2.133v12.1483h-5.5642V0h5.5642v13.6785Z"></path>
  <path class="cls-1" d="m56.8184,23.6475c.1857,1.6693.8346,2.9676,1.9476,3.895,1.1128.9272,2.4575,1.3909,4.0341,1.3909,1.3909,0,2.5572-.2856,3.5007-.858.9425-.5715,1.7691-1.2902,2.4807-2.156l3.9874,3.014c-1.298,1.6076-2.7514,2.7517-4.3585,3.4313-1.6073.6794-3.2921,1.02-5.0541,1.02-1.6689,0-3.2455-.2783-4.7292-.8344-1.4839-.5565-2.7672-1.3449-3.8486-2.3651-1.0825-1.02-1.9403-2.2487-2.5735-3.6861-.6337-1.4373-.9508-3.0372-.9508-4.7992s.3171-3.3615.9508-4.7988c.6331-1.4375,1.491-2.6662,2.5735-3.6864,1.0814-1.02,2.3647-1.8082,3.8486-2.3647,1.4837-.5563,3.0604-.8344,4.7292-.8344,1.5455,0,2.96.2709,4.2425.8113,1.2827.5411,2.3803,1.3215,3.2925,2.3415.9113,1.0202,1.6227,2.2799,2.1328,3.7792.5099,1.4996.7649,3.2225.7649,5.1698v1.5303h-16.9705Zm11.407-4.1731c-.0313-1.6381-.5414-2.9284-1.5304-3.8716-.9897-.9426-2.3649-1.4143-4.1267-1.4143-1.6694,0-2.9906.4796-3.9644,1.4373-.9738.9586-1.5694,2.2417-1.7854,3.8486h11.407Z"></path>
  <path class="cls-1" d="m76.5022,10.5718h5.5642v3.5237h.0928c.6183-1.2983,1.4993-2.3024,2.643-3.0136,1.1434-.7109,2.4575-1.0664,3.9412-1.0664.3401,0,.6726.031.9968.0926.3249.0623.6569.139.997.2319v5.3787c-.4633-.1232-.9198-.2241-1.3677-.3015-.4485-.0767-.8888-.116-1.3213-.116-1.2985,0-2.3415.2399-3.1301.7188-.7881.4795-1.3909,1.028-1.8081,1.6459-.4177.6188-.6956,1.2367-.8346,1.8548-.1392.6188-.2089,1.0825-.2089,1.3911v11.9163h-5.5642V10.5718Z"></path>
  <path class="cls-1" d="m93.4506,10.5718h5.2855v3.4775h.093c.4942-1.0503,1.2904-1.9856,2.3877-2.8052,1.097-.8187,2.5735-1.2286,4.4283-1.2286,3.4931,0,5.811,1.3757,6.9552,4.1264.8035-1.4214,1.8086-2.4646,3.0141-3.1296,1.2052-.6645,2.6429-.9968,4.3118-.9968,1.4839,0,2.7356.2477,3.7562.7418,1.02.4949,1.8467,1.1751,2.4807,2.0398.6333.8658,1.0898,1.8782,1.3679,3.0373.278,1.1592.4171,2.4037.4171,3.7326v13.2611h-5.5642v-12.612c0-.6797-.0621-1.3367-.1852-1.9708-.1241-.633-.3406-1.1896-.6496-1.6691-.3093-.4789-.7264-.8576-1.2518-1.136-.5258-.2781-1.2054-.4175-2.04-.4175-.8661,0-1.5997.1624-2.2025.4869-.6029.3247-1.0975.758-1.4839,1.2983-.3867.5412-.6648,1.1592-.8348,1.8548-.1698.6955-.255,1.3991-.255,2.1096v12.0557h-5.564v-13.2611c0-1.3911-.2939-2.4957-.881-3.3153-.5875-.8187-1.5612-1.2289-2.9208-1.2289-.9276,0-1.7086.1551-2.3415.4639-.6342.3093-1.1597.7268-1.5767,1.2519-.4173.526-.719,1.1287-.904,1.8082-.1857.6802-.2781,1.3911-.2781,2.133v12.1483h-5.5642V10.5718Z"></path>
  <path class="cls-1" d="m130.5813,21.6999c0-1.7618.3171-3.3615.9508-4.7988.6331-1.4375,1.491-2.6662,2.5735-3.6864,1.0816-1.02,2.3647-1.8082,3.8486-2.3647,1.4837-.5563,3.0603-.8344,4.7294-.8344s3.2455.2781,4.7294.8344c1.4837.5565,2.7664,1.3447,3.8486,2.3647,1.082,1.0202,1.9398,2.2489,2.5735,3.6864.6331,1.4373.9506,3.037.9506,4.7988s-.3175,3.3619-.9506,4.7992c-.6337,1.4373-1.4915,2.6661-2.5735,3.6861-1.0821,1.0202-2.3649,1.8086-3.8486,2.3651-1.4839.5561-3.06.8344-4.7294.8344s-3.2457-.2783-4.7294-.8344c-1.4839-.5565-2.767-1.3449-3.8486-2.3651-1.0825-1.02-1.9403-2.2487-2.5735-3.6861-.6337-1.4373-.9508-3.0372-.9508-4.7992Zm5.5642,0c0,.8658.1468,1.7006.4407,2.5041.2936.8042.7261,1.5147,1.298,2.1328.5722.6188,1.2597,1.1128,2.0637,1.4837.8035.3711,1.7156.5565,2.7356.5565s1.9316-.1854,2.7356-.5565c.8035-.3709,1.491-.8649,2.0635-1.4837.5715-.6181,1.0041-1.3286,1.2982-2.1328.2934-.8035.4405-1.6383.4405-2.5041,0-.8649-.1471-1.6995-.4405-2.5037-.2941-.8035-.7266-1.5143-1.2982-2.1331-.5726-.6179-1.2601-1.1128-2.0635-1.4837-.804-.3709-1.7156-.5565-2.7356-.5565s-1.9322.1856-2.7356.5565c-.804.3709-1.4915.8658-2.0637,1.4837-.5719.6188-1.0044,1.3297-1.298,2.1331-.2939.8042-.4407,1.6388-.4407,2.5037Z"></path>
  <path class="cls-1" d="m157.579,0h5.8422v13.9101h.2782l13.5858-13.9101h7.8822l-15.3478,15.1622,16.3683,17.6659h-8.2074l-14.235-16.136h-.3242v16.136h-5.8422V0Z"></path>
  <path class="cls-1" d="m189.5272,23.6475c.1856,1.6693.8348,2.9676,1.9476,3.895,1.1128.9272,2.4575,1.3909,4.0341,1.3909,1.3909,0,2.5572-.2856,3.5007-.858.9426-.5715,1.7691-1.2902,2.4807-2.156l3.9876,3.014c-1.2981,1.6076-2.7516,2.7517-4.3585,3.4313-1.6075.6794-3.2925,1.02-5.0541,1.02-1.6691,0-3.2457-.2783-4.7296-.8344-1.4837-.5565-2.7668-1.3449-3.8484-2.3651-1.0825-1.02-1.9403-2.2487-2.5735-3.6861-.6337-1.4373-.9508-3.0372-.9508-4.7992s.3171-3.3615.9508-4.7988c.6331-1.4375,1.491-2.6662,2.5735-3.6864,1.0816-1.02,2.3647-1.8082,3.8484-2.3647,1.4839-.5563,3.0605-.8344,4.7296-.8344,1.5451,0,2.9598.2709,4.2424.8113,1.2828.5411,2.3801,1.3215,3.2925,2.3415.9111,1.0202,1.6229,2.2799,2.1328,3.7792.5099,1.4996.7649,3.2225.7649,5.1698v1.5303h-16.9705Zm11.4068-4.1731c-.0312-1.6381-.5412-2.9284-1.5304-3.8716-.9895-.9426-2.3647-1.4143-4.1266-1.4143-1.6694,0-2.9906.4796-3.9644,1.4373-.9738.9586-1.5694,2.2417-1.7854,3.8486h11.4068Z"></path>
  <path class="cls-1" d="m205.9385,10.5718h6.1209l6.2133,15.4404h.0922l5.5642-15.4404h5.796l-10.5254,27.0322c-.4023,1.0506-.8424,1.9708-1.3212,2.759-.4796.7881-1.0435,1.4525-1.6926,1.9938-.6489.5405-1.4145.9426-2.2953,1.2056-.881.2624-1.94.3943-3.176.3943-1.4534,0-2.8752-.1856-4.2661-.5565l.6956-5.0078c.4325.1542.8881.2852,1.3679.3939.4787.1082.9656.1625,1.4607.1625.6794,0,1.2519-.0623,1.7156-.1856.4633-.1239.8575-.3173,1.1822-.5798.3247-.2629.5945-.6025.8116-1.0198.2156-.4175.4474-.9201.6953-1.5069l1.0666-2.643-9.5056-22.4419Z"></path>
  <path class="cls-2" d="m4.1039,49.8856h1.3311v6.1733h7.9865v-6.1733h1.3309v14.0087h-1.3309v-6.6481h-7.9865v6.6481h-1.3311v-14.0087Z"></path>
  <path class="cls-2" d="m26.5504,62.173c-.471.6994-1.052,1.2002-1.7445,1.5037-.6926.3033-1.4557.4548-2.2891.4548-.7126,0-1.3583-.1186-1.9361-.3559-.5784-.2373-1.0758-.5705-1.4924-.9993-.4171-.4285-.7364-.9364-.9582-1.5235-.2218-.5869-.3327-1.2367-.3327-1.9492,0-.6855.114-1.3185.3431-1.8992.2282-.5802.551-1.0848.9679-1.5138.4164-.4283.9074-.765,1.4722-1.009.5646-.244,1.19-.3661,1.8757-.3661.7123,0,1.3412.1222,1.8858.3661.5443.244,1.0012.5673,1.3711.9694.3697.4026.6485.8608.8371,1.3752.1882.5147.2822,1.0359.2822,1.5632v.8311h-7.825c0,.2505.0505.5708.1512.9598.1011.389.2856.7684.5547,1.1376.2688.3697.6285.6859,1.079.9499.4502.264,1.0315.3957,1.7445.3957.6183,0,1.2165-.145,1.7948-.4354.5779-.29,1.0216-.6857,1.3311-1.1873l.8876.7323Zm-.9279-3.6209c0-.409-.0841-.7916-.2519-1.1477-.168-.3562-.3968-.6694-.6855-.9398-.2895-.2704-.6323-.4848-1.0289-.6432-.3964-.1583-.8166-.2376-1.2603-.2376-.659,0-1.2068.1324-1.6438.3961-.437.264-.7833.5673-1.0386.91-.2555.3431-.4371.676-.5446.9995-.1076.3233-.1613.5437-.1613.6627h6.6149Z"></path>
  <path class="cls-2" d="m36.7752,60.0557c0,.4488.0032.8511.0103,1.207.0064.3564.0165.6861.0301.9895.0133.3035.0305.5868.0505.8509.02.2638.0505.5276.0908.7912h-1.1296c-.0806-.4483-.1209-.943-.1209-1.4839h-.0402c-.3499.5937-.7836,1.0289-1.301,1.3059-.5177.2769-1.173.4152-1.9663.4152-.4033,0-.8001-.0494-1.1898-.148-.39-.099-.7397-.2574-1.0489-.475-.3095-.2176-.5614-.4979-.756-.8408-.1953-.343-.2927-.7587-.2927-1.2466,0-.699.1817-1.253.5446-1.662.3631-.409.8097-.7155,1.3412-.9201.531-.2043,1.0956-.3364,1.694-.3957.5983-.0593,1.1259-.0891,1.5834-.0891h1.4116v-.554c0-.7916-.2491-1.3587-.7461-1.7017-.4979-.343-1.123-.5147-1.8759-.5147-1.0759,0-2.0237.3433-2.8436,1.029l-.7057-.8114c.4435-.4219.9949-.7417,1.6537-.9594.6588-.2176,1.2907-.3265,1.8957-.3265,1.1294,0,2.0301.2606,2.7024.7815.6724.5214,1.0085,1.3622,1.0085,2.5228v2.2358Zm-2.4201-.7519c-.511,0-1.0051.0335-1.4821.099-.4777.0664-.9077.1781-1.2911.3364-.383.1583-.6893.3697-.9175.6333-.2286.264-.3428.5937-.3428.9894,0,.2769.0637.5241.1914.7418.1277.2176.2927.3959.4942.5342.2018.1386.4269.2443.6756.3167.2486.0726.5009.1089.7564.1089.6452,0,1.1763-.0924,1.5931-.2771.4166-.1847.7493-.4255.9984-.722.2486-.2971.42-.6333.5142-1.0094s.1415-.755.1415-1.1377v-.6135h-1.3313Z"></path>
  <path class="cls-2" d="m44.5598,55.8214h-2.662v5.9557c0,.4093.1142.7256.3428.9499.2284.2243.5446.3364.9479.3364.2282,0,.4602-.0299.6956-.0892.2351-.0593.4605-.1353.6756-.2275l.1009,1.0687c-.2286.079-.491.1514-.7866.2176-.2959.0657-.5581.0986-.7865.0986-.4304,0-.8001-.0625-1.1092-.1879-.3095-.1252-.5579-.2934-.7461-.5044-.1886-.2109-.3263-.4582-.4136-.742-.0873-.2835-.131-.5903-.131-.9201v-5.9557h-2.0168v-1.0685h2.0168v-2.6315h1.2102v2.6315h2.662v1.0685Z"></path>
  <path class="cls-2" d="m52.3039,49.8856h8.7328v1.187h-7.4015v4.9863h6.9376v1.1873h-6.9376v5.4608h7.7243v1.1873h-9.0555v-14.0087Z"></path>
  <path class="cls-2" d="m66.3001,58.9478l-3.3275-4.1949h1.5529l2.5814,3.4626,2.5614-3.4626h1.5126l-3.2875,4.1949,3.9931,4.9465h-1.5729l-3.247-4.1352-3.1866,4.1352h-1.452l3.8721-4.9465Z"></path>
  <path class="cls-2" d="m81.4257,62.5487c-.457.5412-.9749.9401-1.5527,1.1971-.5783.2573-1.2032.3858-1.8757.3858-.7128,0-1.3713-.1186-1.9764-.3559-.605-.2373-1.1227-.5705-1.5529-.9993-.4304-.4285-.7665-.9364-1.0083-1.5235-.2419-.5869-.3633-1.2298-.3633-1.9292,0-.699.1215-1.3421.3633-1.9293.2419-.5868.5779-1.0947,1.0083-1.5234.4302-.4286.9479-.7619,1.5529-.9995.6052-.2374,1.2636-.3561,1.9764-.3561.6855,0,1.321.1386,1.9058.4157.5852.2771,1.1057.6661,1.563,1.1673l-.9679.7123c-.35-.3824-.7332-.6827-1.1496-.9003-.417-.2178-.8672-.3267-1.3513-.3267-.5646,0-1.0756.099-1.5326.2971-.4573.1976-.847.4648-1.1698.8013-.3228.3364-.5682.7321-.7362,1.1871-.1684.4548-.2521.9398-.2521,1.4543s.0837.9993.2521,1.4541c.168.455.4134.8511.7362,1.1875.3228.3362.7125.6034,1.1698.801.457.1979.9679.2971,1.5326.2971.511,0,.9784-.1154,1.4017-.3461.4235-.2309.7897-.5375,1.0991-.9203l.9276.7518Z"></path>
  <path class="cls-2" d="m83.3214,48.9357h1.2102v7.4201h.0402c.2422-.5012.6455-.9331,1.2102-1.296.5648-.3628,1.2231-.5443,1.9763-.5443.7261,0,1.3176.1123,1.775.3364.457.2247.8169.5179,1.0788.8805.2624.363.4437.7815.5448,1.2565.1007.4749.1512.9628.1512,1.4642v5.4412h-1.2102v-5.3819c0-.3693-.0336-.7289-.1009-1.0784-.0671-.3493-.185-.6629-.3529-.94-.168-.2769-.4031-.4977-.7059-.6627-.3024-.1647-.6956-.2475-1.1799-.2475-.4435,0-.864.0761-1.2603.2279-.3968.1517-.7395.3826-1.0287.6923-.2891.3104-.5179.6994-.6857,1.1677-.168.4683-.2519,1.0188-.2519,1.6521v4.5706h-1.2102v-14.9586Z"></path>
  <path class="cls-2" d="m101.7747,60.0557c0,.4488.0032.8511.0103,1.207.0066.3564.0165.6861.0301.9895.0133.3035.0305.5868.0505.8509.02.2638.0505.5276.0908.7912h-1.1296c-.0806-.4483-.1209-.943-.1209-1.4839h-.0402c-.3499.5937-.7836,1.0289-1.301,1.3059-.5179.2769-1.173.4152-1.9663.4152-.4033,0-.8001-.0494-1.1898-.148-.39-.099-.7397-.2574-1.0487-.475-.3097-.2176-.5616-.4979-.7564-.8408-.1953-.343-.2925-.7587-.2925-1.2466,0-.699.1817-1.253.5446-1.662.3631-.409.8097-.7155,1.3412-.9201.531-.2043,1.0956-.3364,1.6939-.3957s1.1262-.0891,1.5834-.0891h1.4116v-.554c0-.7916-.2489-1.3587-.7461-1.7017-.4977-.343-1.1227-.5147-1.8757-.5147-1.0759,0-2.0239.3433-2.8436,1.029l-.7057-.8114c.4435-.4219.9949-.7417,1.6535-.9594.6588-.2176,1.2909-.3265,1.8959-.3265,1.1292,0,2.0301.2606,2.7024.7815.6724.5214,1.0085,1.3622,1.0085,2.5228v2.2358Zm-2.4201-.7519c-.511,0-1.0051.0335-1.4821.099-.4777.0664-.9077.1781-1.2911.3364-.3828.1583-.6893.3697-.9175.6333-.2288.264-.3428.5937-.3428.9894,0,.2769.0637.5241.1914.7418.1278.2176.2927.3959.4942.5342.2018.1386.4271.2443.6756.3167.2486.0726.5009.1089.7564.1089.6452,0,1.1763-.0924,1.5931-.2771.4166-.1847.7493-.4255.9984-.722.2486-.2971.4201-.6333.5142-1.0094.0942-.3761.1413-.755.1413-1.1377v-.6135h-1.3311Z"></path>
  <path class="cls-2" d="m105.0015,57.3252c0-.1714-.0071-.3787-.02-.623-.0136-.2442-.0239-.4913-.0303-.7424-.0069-.2502-.0172-.4846-.0305-.702-.0133-.2178-.02-.3862-.02-.5048h1.2102c.0131.3433.0232.673.0299.9892.0069.3167.0234.5214.0505.6137h.0606c.2422-.5012.6455-.9331,1.2102-1.296.5646-.3628,1.2231-.5443,1.9764-.5443.7259,0,1.3174.1123,1.7748.3364.457.2247.8169.5179,1.0788.8805.2624.363.4439.7815.5446,1.2565.1011.4749.1516.9628.1516,1.4642v5.4412h-1.2103v-5.3819c0-.3693-.0336-.7289-.1009-1.0784-.0673-.3493-.185-.6629-.3529-.94-.168-.2769-.4031-.4977-.7059-.6627-.3024-.1647-.6956-.2475-1.1797-.2475-.4439,0-.8642.0761-1.2603.2279-.397.1517-.7397.3826-1.0289.6923-.2891.3104-.5179.6994-.6855,1.1677-.1682.4683-.2521,1.0188-.2521,1.6521v4.5706h-1.2102v-6.5692Z"></path>
  <path class="cls-2" d="m125.5727,63.3007c0,1.1344-.168,2.051-.5042,2.7503-.3359.699-.756,1.2399-1.2603,1.6227-.5042.3823-1.0455.6395-1.6234.7716-.5784.1315-1.1029.1979-1.5731.1979-.471,0-.9313-.0432-1.3817-.1289-.4508-.086-.8773-.2109-1.2806-.3759-.4031-.165-.77-.3658-1.0993-.6036-.3293-.2373-.6151-.508-.8569-.8109l.9479-.8707c.4302.5937.9679,1.0287,1.6135,1.3059.6452.2771,1.3311.4154,2.0572.4154.6179,0,1.1393-.079,1.5627-.2373.4237-.1583.7732-.3663,1.0489-.6236.2755-.2569.4904-.5409.6455-.8506.1542-.31.2688-.6204.3428-.9299.0737-.31.1174-.6036.1308-.8807.0135-.2769.0205-.5012.0205-.6726v-1.2663h-.0404c-.35.554-.8238.9894-1.4221,1.3058-.5983.3166-1.3008.4749-2.1073.4749-.6859,0-1.3313-.1218-1.9364-.3661-.605-.2436-1.1328-.5802-1.583-1.009-.4508-.4286-.8068-.9265-1.0687-1.4938-.2624-.5669-.3934-1.1739-.3934-1.8206,0-.6459.131-1.253.3934-1.8203.2619-.5669.6179-1.0616,1.0687-1.4841.4502-.4219.978-.7581,1.583-1.0088.6052-.2504,1.2505-.3761,1.9364-.3761.8065,0,1.509.1585,2.1073.475.5983.3164,1.0721.7516,1.4221,1.3056h.0404v-1.5432h1.2098v8.5477Zm-1.1698-4.0959c0-.5011-.0976-.9724-.2923-1.4145-.1951-.4419-.4573-.8244-.7865-1.1477-.3297-.3229-.7194-.5802-1.1698-.7716-.4506-.191-.9311-.2872-1.4421-.2872s-.9915.0961-1.4417.2872c-.4508.1914-.8406.4487-1.1698.7716-.3298.3233-.5919.7057-.7865,1.1477-.1953.4421-.2927.9134-.2927,1.4145,0,.5016.0974.9731.2927,1.4148.1946.4423.4566.8245.7865,1.1477.3291.3233.719.5807,1.1698.7718.4502.1912.9308.287,1.4417.287s.9915-.0958,1.4421-.287c.4504-.191.8401-.4485,1.1698-.7718.3291-.3231.5914-.7054.7865-1.1477.1948-.4417.2923-.9132.2923-1.4148Z"></path>
  <path class="cls-2" d="m136.7657,62.173c-.471.6994-1.052,1.2002-1.7445,1.5037-.6926.3033-1.4555.4548-2.2891.4548-.7126,0-1.3583-.1186-1.9362-.3559-.5783-.2373-1.0756-.5705-1.492-.9993-.4173-.4285-.7364-.9364-.9584-1.5235-.2219-.5869-.3327-1.2367-.3327-1.9492,0-.6855.1142-1.3185.343-1.8992.2284-.5802.5512-1.0848.9679-1.5138.4166-.4283.9076-.765,1.4722-1.009.5648-.244,1.1903-.3661,1.8757-.3661.7126,0,1.3412.1222,1.8858.3661.5444.244,1.0014.5673,1.3714.9694.3697.4026.6484.8608.8369,1.3752.1882.5147.2822,1.0359.2822,1.5632v.8311h-7.825c0,.2505.0505.5708.1514.9598s.2856.7684.5545,1.1376c.2688.3697.6284.6859,1.079.9499.4501.264,1.0317.3957,1.7445.3957.6183,0,1.2165-.145,1.7948-.4354.5781-.29,1.0216-.6857,1.3313-1.1873l.8874.7323Zm-.9279-3.6209c0-.409-.0841-.7916-.2519-1.1477-.1682-.3562-.3968-.6694-.6855-.9398-.2895-.2704-.6323-.4848-1.0287-.6432-.3966-.1583-.8167-.2376-1.2604-.2376-.659,0-1.207.1324-1.6439.3961-.4368.264-.7831.5673-1.0384.91-.2553.3431-.4371.676-.5446.9995-.1076.3233-.1613.5437-.1613.6627h6.6149Z"></path>
  <path class="cls-2" d="m145.7202,61.3025c.3493.5937.8033,1.0356,1.3612,1.3256.5579.2904,1.1932.4354,1.9058.4354.4437,0,.8603-.066,1.2507-.1981.3897-.1315.7289-.3166,1.0184-.5538.2888-.2374.5173-.5243.6855-.861.1678-.3362.2523-.7151.2523-1.1374,0-.488-.1045-.8906-.3127-1.207-.2087-.3167-.4874-.5772-.8371-.7819-.3495-.2043-.7433-.3789-1.1797-.5241-.437-.145-.8876-.29-1.3513-.4354-.4637-.145-.9145-.3097-1.3513-.4947-.4371-.1847-.8304-.4255-1.1797-.7222-.3499-.2969-.6287-.6694-.8369-1.1181-.2086-.4479-.3128-1.0023-.3128-1.662,0-.6199.1243-1.1705.3732-1.6521.2484-.4812.5848-.8837,1.0085-1.207.4233-.3229.9108-.5669,1.4621-.7319.5512-.165,1.1292-.2475,1.7344-.2475.7797,0,1.5025.1354,2.1682.4055.6655.2707,1.2401.7224,1.724,1.3555l-1.1494.8113c-.3362-.4616-.7295-.8077-1.1797-1.0388-.4508-.2307-.9851-.3461-1.6034-.3461-.4304,0-.8407.0561-1.2303.1682-.39.1119-.7295.2769-1.0184.4945-.2895.2178-.5212.4915-.696.8212-.1746.3298-.2619.719-.2619,1.1673,0,.6994.1815,1.2369.5446,1.6124.363.3761.8166.6732,1.3612.8908s1.1362.409,1.7748.5736c.6385.165,1.2303.3858,1.7746.6629.5446.2769.9984.6629,1.3615,1.1574.363.4947.5443,1.1776.5443,2.0481,0,.633-.1209,1.1939-.3628,1.6816-.2419.4883-.5682.9005-.9784,1.2369-.4101.3362-.8842.5905-1.4215.7617-.5379.1714-1.0961.2571-1.674.2571-.941,0-1.8084-.1615-2.6014-.4846-.7937-.3233-1.4725-.8674-2.0372-1.6324l1.2707-.8309Z"></path>
  <path class="cls-2" d="m155.6829,59.3237c0-.699.1213-1.3421.3631-1.9293.2419-.5868.5781-1.0947,1.0085-1.5234.4301-.4286.9478-.7619,1.5529-.9995.605-.2374,1.2634-.3561,1.9764-.3561.7125,0,1.3679.1186,1.9662.3561.5983.2376,1.1161.5708,1.5531.9995s.7764.9366,1.0182,1.5234c.2422.5873.3633,1.2303.3633,1.9293,0,.6994-.1211,1.3422-.3633,1.9292-.2419.5871-.5813,1.0951-1.0182,1.5235-.437.4288-.9548.762-1.5531.9993-.5983.2373-1.2537.3559-1.9662.3559-.713,0-1.3714-.1186-1.9764-.3559-.6052-.2373-1.1229-.5705-1.5529-.9993-.4304-.4285-.7666-.9364-1.0085-1.5235-.2419-.5869-.3631-1.2298-.3631-1.9292Zm1.2102,0c0,.5143.0839.9993.2523,1.4541.1678.455.4132.8511.736,1.1875.3228.3362.7125.6034,1.1698.801.457.1979.9679.2971,1.5327.2971.5644,0,1.0756-.0991,1.5329-.2971.4566-.1976.847-.4648,1.1693-.801.3229-.3364.568-.7325.7364-1.1875.1678-.4548.2521-.9398.2521-1.4541s-.0843-.9995-.2521-1.4543c-.1684-.455-.4134-.8507-.7364-1.1871-.3222-.3366-.7126-.6037-1.1693-.8013-.4573-.1981-.9685-.2971-1.5329-.2971-.5648,0-1.0758.099-1.5327.2971-.4573.1976-.847.4648-1.1698.8013-.3228.3364-.5682.7321-.736,1.1871-.1684.4548-.2523.9398-.2523,1.4543Z"></path>
  <path class="cls-2" d="m168.3885,48.9357h1.2102v14.9586h-1.2102v-14.9586Z"></path>
  <path class="cls-2" d="m180.9124,61.3219c0,.1717.0065.3796.02.6232.0135.2443.0234.4919.0305.7422.0064.2507.0165.4848.0301.7025.0133.2176.0204.3858.0204.5044h-1.2102c-.0136-.343-.0235-.6726-.0301-.9894-.0071-.3166-.0239-.5209-.0505-.6133h-.0604c-.2422.5014-.6455.9332-1.2102,1.2958-.5648.3626-1.2238.5441-1.9764.5441-.7261,0-1.3212-.1119-1.7849-.3362-.4641-.224-.827-.5175-1.0892-.8805-.2622-.3628-.4405-.7815-.5343-1.2565-.0944-.4747-.1413-.9626-.1413-1.4639v-5.4415h1.2103v5.3819c0,.3697.0331.7291.1007,1.0784.0669.3497.1845.6629.3529.9398.1678.2769.4033.4982.7057.6629.3028.1652.6958.2475,1.1801.2475.4433,0,.8635-.076,1.2603-.2277.3966-.1516.7394-.3826,1.0285-.6926.2891-.3095.5174-.699.6859-1.1673.1679-.4678.2519-1.0191.2519-1.6521v-4.5708h1.2102v6.569Z"></path>
  <path class="cls-2" d="m188.7979,55.8214h-2.6618v5.9557c0,.4093.1142.7256.3428.9499.2282.2243.5446.3364.9478.3364.2284,0,.4603-.0299.6958-.0892.235-.0593.4603-.1353.6755-.2275l.1009,1.0687c-.2286.079-.491.1514-.7865.2176-.2959.0657-.5582.0986-.7866.0986-.4304,0-.8001-.0625-1.1092-.1879-.3095-.1252-.5579-.2934-.7461-.5044-.1886-.2109-.3263-.4582-.4136-.742-.0873-.2835-.131-.5903-.131-.9201v-5.9557h-2.0166v-1.0685h2.0166v-2.6315h1.2103v2.6315h2.6618v1.0685Z"></path>
  <path class="cls-2" d="m190.8753,51.1319c0-.2502.0873-.4612.2622-.633.1746-.1712.3897-.2573.6452-.2573s.4706.086.6455.2573c.1746.1717.2622.3828.2622.633,0,.2511-.0876.4621-.2622.6335-.1749.1716-.39.2573-.6455.2573s-.4706-.0857-.6452-.2573c-.1749-.1714-.2622-.3824-.2622-.6335Zm.3024,3.6211h1.2102v9.1414h-1.2102v-9.1414Z"></path>
  <path class="cls-2" d="m195.2917,59.3237c0-.699.1213-1.3421.3631-1.9293.2419-.5868.5779-1.0947,1.0083-1.5234.4301-.4286.9479-.7619,1.5531-.9995.605-.2374,1.2634-.3561,1.9763-.3561s1.3681.1186,1.9663.3561c.5983.2376,1.116.5708,1.5529.9995.437.4286.7766.9366,1.0184,1.5234.2422.5873.3631,1.2303.3631,1.9293,0,.6994-.1209,1.3422-.3631,1.9292-.2419.5871-.5814,1.0951-1.0184,1.5235-.437.4288-.9547.762-1.5529.9993-.5983.2373-1.2539.3559-1.9663.3559s-1.3713-.1186-1.9763-.3559c-.6052-.2373-1.123-.5705-1.5531-.9993-.4304-.4285-.7665-.9364-1.0083-1.5235-.2418-.5869-.3631-1.2298-.3631-1.9292Zm1.2102,0c0,.5143.0837.9993.2521,1.4541.1678.455.4134.8511.7362,1.1875.3228.3362.7125.6034,1.1698.801.457.1979.9679.2971,1.5326.2971s1.0756-.0991,1.5329-.2971c.4566-.1976.847-.4648,1.1694-.801.3228-.3364.568-.7325.7364-1.1875.1678-.4548.252-.9398.252-1.4541s-.0841-.9995-.252-1.4543c-.1684-.455-.4136-.8507-.7364-1.1871-.3224-.3366-.7128-.6037-1.1694-.8013-.4573-.1981-.9683-.2971-1.5329-.2971s-1.0756.099-1.5326.2971c-.4573.1976-.847.4648-1.1698.8013-.3228.3364-.5683.7321-.7362,1.1871-.1684.4548-.2521.9398-.2521,1.4543Z"></path>
  <path class="cls-2" d="m207.7953,57.3252c0-.1714-.0071-.3787-.0198-.623-.0136-.2442-.0241-.4913-.0305-.7424-.0069-.2502-.0172-.4846-.0304-.702-.0133-.2178-.02-.3862-.02-.5048h1.2102c.0133.3433.0234.673.0301.9892.0067.3167.0232.5214.0505.6137h.0606c.2422-.5012.6454-.9331,1.21-1.296.5648-.3628,1.2233-.5443,1.9763-.5443.7261,0,1.3178.1123,1.775.3364.457.2247.8169.5179,1.079.8805.2622.363.4437.7815.5446,1.2565.1009.4749.1512.9628.1512,1.4642v5.4412h-1.2102v-5.3819c0-.3693-.0336-.7289-.1007-1.0784-.0673-.3493-.185-.6629-.353-.94-.168-.2769-.4031-.4977-.7059-.6627-.3024-.1647-.6956-.2475-1.1799-.2475-.4435,0-.864.0761-1.2603.2279-.3968.1517-.7395.3826-1.0287.6923-.2891.3104-.5179.6994-.6857,1.1677-.168.4683-.2518,1.0188-.2518,1.6521v4.5706h-1.2103v-6.5692Z"></path>
  <path class="cls-2" d="m219.0289,61.5594c.2551.4883.6319.8608,1.1292,1.1181.4975.2574,1.0216.386,1.5735.386.2551,0,.5106-.0398.7661-.1186.2555-.0795.4841-.191.6859-.3364.2015-.145.3661-.3199.4938-.5246.1278-.2043.1917-.4384.1917-.7024,0-.4219-.1381-.7387-.4136-.9497-.2755-.211-.6151-.3761-1.0184-.4947s-.8468-.2208-1.3311-.3067c-.4837-.0857-.9276-.2178-1.3307-.3957-.4037-.1781-.7433-.4255-1.0189-.7418-.2753-.3166-.4132-.765-.4132-1.3456,0-.4483.0938-.8378.2824-1.1673.1882-.3297.4336-.6036.736-.8212.3028-.2178.642-.3792,1.0184-.4848s.7597-.1585,1.1498-.1585c.7665,0,1.4285.1386,1.9864.4157s.9915.7123,1.301,1.3056l-1.0892.6333c-.2286-.4219-.5142-.742-.8569-.9596-.343-.2178-.7902-.3267-1.3412-.3267-.2155,0-.4405.0335-.6756.099-.2355.0664-.4472.1585-.6353.2769-.1886.1188-.3463.2707-.474.4556-.1282.1847-.1916.3955-.1916.633,0,.409.1376.7123.4134.9102.2755.1978.6151.353,1.0184.4648.4033.1124.847.2079,1.3311.2868.4842.0793.9279.2079,1.3311.3863.4033.1779.7426.4348,1.0184.7714.2757.3364.4132.8146.4132,1.4347,0,.4747-.0905.887-.2718,1.2365-.1818.3495-.4306.6431-.7465.8805-.316.2374-.6756.4155-1.079.5343-.4032.1184-.827.1778-1.2705.1778-.8067,0-1.5428-.1516-2.2084-.4548-.6655-.3035-1.1797-.7718-1.543-1.4051l1.069-.7123Z"></path>
  <path class="cls-1" d="m231.2565,14.7414c0-.6689.1247-1.2937.3748-1.8739.2495-.58.5905-1.0797,1.0225-1.4991.432-.4193.934-.7495,1.5057-.991.5717-.2413,1.1792-.3619,1.8229-.3619s1.2518.1206,1.8231.3619c.5717.2415,1.0735.5717,1.5055.991.432.4194.7728.9191,1.023,1.4991.2498.5802.3745,1.205.3745,1.8739,0,.6778-.1246,1.3045-.3745,1.8803-.2502.5761-.591,1.0736-1.023,1.4929-.432.4191-.9338.7495-1.5055.991-.5713.2413-1.1795.3621-1.8231.3621s-1.2512-.1207-1.8229-.3621c-.5717-.2415-1.0736-.5719-1.5057-.991-.432-.4193-.773-.9168-1.0225-1.4929-.2502-.5758-.3748-1.2025-.3748-1.8803Zm.8383,0c0,.5761.1018,1.1098.3051,1.6009.2033.4913.4782.917.8256,1.2767.3472.3601.7581.6438,1.2326.8513.474.2075.9823.3113,1.5242.3113s1.0482-.1038,1.5184-.3113c.4699-.2075.8805-.4911,1.2321-.8513.3516-.3598.6289-.7854.8325-1.2767.2033-.4911.3045-1.0248.3045-1.6009,0-.5675-.1013-1.099-.3045-1.5944-.2036-.4956-.4809-.923-.8325-1.2833-.3516-.3598-.7622-.6434-1.2321-.8511-.4703-.2075-.9763-.3113-1.5184-.3113s-1.0503.1038-1.5242.3113c-.4745.2077-.8854.4913-1.2326.8511-.3474.3603-.6223.7877-.8256,1.2833-.2033.4954-.3051,1.0269-.3051,1.5944Zm2.0837-2.7696h2.0834c1.2873,0,1.9311.5253,1.9311,1.5754,0,.4998-.1397.8661-.4191,1.099-.2796.2332-.6271.3706-1.0418.4129l1.5878,2.4393h-.9019l-1.4991-2.3757h-.9019v2.3757h-.8385v-5.5265Zm.8385,2.4649h.8638c.1861,0,.3683-.0066.5462-.0193.1778-.0126.3344-.0485.4701-.108.1355-.0591.2456-.1523.3306-.2794.0845-.1269.1269-.3006.1269-.5209,0-.1861-.0384-.3368-.1146-.451-.076-.1144-.1737-.2011-.292-.2604-.1186-.0591-.2502-.0974-.3939-.1144-.1443-.017-.2882-.0255-.432-.0255h-1.1052v1.7788Z"></path>
</svg>
